<svg xmlns="http://www.w3.org/2000/svg" viewBox="0 0 512 511"><g fill="none" stroke-width="2"><path stroke="#80aab4" d="M504.76 44.69a39.43 39.43 0 0 0-39.43-39.43H46.95A39.43 39.43 0 0 0 7.52 44.69v417.64a39.43 39.43 0 0 0 39.43 39.43h418.38a39.43 39.43 0 0 0 39.43-39.43V44.69" vector-effect="non-scaling-stroke"/><path stroke="#80aab4" d="M47.5 16.85c-16.43 0-28.68 12.58-28.69 28.9q-.07 143.34-.06 286.52a.5.48 0 0 0 .5.48h474a.5.49 0 0 0 .5-.49V51.12q0-9.23-1.37-13.96-4.28-14.74-18.87-19-4.91-1.43-15.16-1.43-205.43.04-410.85.12m57.65 405.87c4.36 23.26 28.27 31.42 48.72 25.25a.88.7-10.2 0 0 .63-.72V432.5a.52.5-9.9 0 0-.69-.47c-3.62 1.28-7.4 2.77-11.12 2.73-28.8-.33-27.57-52.55 11.25-38.4a.42.39 10.4 0 0 .56-.36v-15a.82.7 8.5 0 0-.61-.7c-28.16-7.54-54.31 12.74-48.74 42.42m76.9-19.42c-10.31 31.59 17.99 53.54 47.57 44.66a.88.69-10.4 0 0 .63-.71V432.5a.54.54 79.6 0 0-.73-.51c-3.66 1.39-7.59 2.82-11.39 2.75-28.62-.56-26.96-52.68 11.45-38.36a.5.44 11.3 0 0 .67-.38l-.02-15.19a.87.38 12.2 0 0-.69-.5c-19.87-5.16-40.82 2.53-47.49 22.99m89.78 4.92q10.23 15.33 20.78 30.44 2.58 3.69 4.66 7.67.25.47.24.92l-.01 1a.5.5 0 0 0 .5.5h16a.55.42 88.7 0 0 .41-.57q-1.54-34.09-.05-68.18a.48.37-88.5 0 0-.36-.5h-16.25a.48.36 89.3 0 0-.36.49l.86 38.07q.02.64-.24.22-9.91-15.65-17.79-27.26-3.64-5.36-5.63-11a.77.56 77.6 0 0-.59-.52h-18a.47.43 88.1 0 0-.43.5q1.82 34.13-.02 68.25a.47.45-88.2 0 0 .45.5h16a.49.44 89.4 0 0 .44-.5l-.86-40q0-.42.25-.03m111.92 22.24q2.84 8.7 4.19 17.76a.62.57 85.3 0 0 .57.53l18.26.01q2.06 0 1.54-2.14c-5.54-22.65-16.45-43.87-21.8-66.59a.69.47 80.7 0 0-.51-.53h-22.25a.54.46-88.7 0 0-.46.52c-.18 5.9-3.98 14.07-6.17 19.64q-8.64 21.98-17.31 45.3-1.42 3.81 2.37 3.81l16.3-.01a.89.55-84.8 0 0 .59-.79q1.18-8.95 4.26-17.44a.8.67-78.5 0 1 .67-.53h19a.82.64-6.4 0 1 .75.46" vector-effect="non-scaling-stroke"/><path stroke="#80aab4" d="M167.73 81.26a8.21 8.21 0 0 0-8.21-8.21h-.3a8.21 8.21 0 0 0-8.21 8.21v87.24a8.21 8.21 0 0 0 8.21 8.21h.3a8.21 8.21 0 0 0 8.21-8.21V81.26m180.51-.12a8.09 8.09 0 0 0-8.09-8.09h-.3a8.09 8.09 0 0 0-8.09 8.09v87.5a8.09 8.09 0 0 0 8.09 8.09h.3a8.09 8.09 0 0 0 8.09-8.09v-87.5M122.5 112.13a8.08 8.08 0 0 0-8.08-8.08h-.54a8.08 8.08 0 0 0-8.08 8.08v40.04a8.08 8.08 0 0 0 8.08 8.08h.54a8.08 8.08 0 0 0 8.08-8.08v-40.04m90.24-.13a7.98 7.98 0 0 0-7.98-7.98h-.52a7.98 7.98 0 0 0-7.98 7.98v40.28a7.98 7.98 0 0 0 7.98 7.98h.52a7.98 7.98 0 0 0 7.98-7.98V112m90.27-.01a7.97 7.97 0 0 0-7.97-7.97h-.54a7.97 7.97 0 0 0-7.97 7.97v40.3a7.97 7.97 0 0 0 7.97 7.97h.54a7.97 7.97 0 0 0 7.97-7.97v-40.3m90.45.14a8.08 8.08 0 0 0-8.08-8.08h-.52a8.08 8.08 0 0 0-8.08 8.08v40.18a8.08 8.08 0 0 0 8.08 8.08h.52a8.08 8.08 0 0 0 8.08-8.08v-40.18M77.411 134.559a7.88 7.88 0 0 0-7.852-7.907l-.8-.003a7.88 7.88 0 0 0-7.908 7.852l-.062 17.92a7.88 7.88 0 0 0 7.852 7.907l.8.003a7.88 7.88 0 0 0 7.908-7.852l.062-17.92m180.544-.005a7.89 7.89 0 0 0-7.876-7.903l-.84-.002a7.89 7.89 0 0 0-7.904 7.876l-.03 17.78a7.89 7.89 0 0 0 7.876 7.904l.84.002a7.89 7.89 0 0 0 7.904-7.877l.03-17.78m180.511-.12a7.79 7.79 0 0 0-7.777-7.803l-.82-.002a7.79 7.79 0 0 0-7.803 7.777l-.032 18.02a7.79 7.79 0 0 0 7.777 7.803l.82.002a7.79 7.79 0 0 0 7.803-7.777l.032-18.02" vector-effect="non-scaling-stroke"/><path stroke="#e28998" d="M144.37 252.41c-12.49 5.88-30.61 3.73-31.26-13.43-.69-18.32 18.38-21.38 31.46-14.82a.3.26 14.1 0 0 .42-.22L145 207a.8.5 12.6 0 0-.57-.56c-21.74-7.17-45.99 2.38-49.4 26.97-4.07 29.35 24.09 44.77 49.36 36.56a.87.71-10.3 0 0 .61-.72v-16.5a.44.4-13.9 0 0-.63-.34m62.49 2.9a.3.22 8.2 0 0-.36.19v14.25a.75.74 5.7 0 0 .6.73c13.64 2.83 36.96 4.33 43.28-12.52 3.92-10.45-.76-21.25-11.39-25.36q-5.66-2.19-11.22-4.42c-4.83-1.94-5.19-6.73-.32-8.57 6.11-2.31 13.38-.62 19.01.55a.44.43 6.5 0 0 .54-.41v-13a.71.58 9.8 0 0-.51-.59c-13.88-3.88-34.91-3.82-39.44 12.97-3.4 12.59 3.97 20.75 15.28 24.51 3.48 1.15 8.67 2.56 10.76 5.24 2.94 3.76-.81 7.03-4.45 7.91-7.08 1.72-14.17.28-21.78-1.48m197.81-17.008a34.89 34.23.2 0 0-34.77-34.352 34.89 34.23.2 0 0-35.01 34.108 34.89 34.23.2 0 0 34.77 34.352 34.89 34.23.2 0 0 35.01-34.108m-135.96 8.988c5.4 22.03 28.71 28.77 48.45 22.71a.83.77-9.2 0 0 .59-.75v-16.5a.44.39-13.6 0 0-.62-.33c-6.58 3.06-14.32 4.38-21.08 1.47-9.96-4.29-13.23-16.38-7.54-25.39 5.96-9.42 19.32-9.1 28.58-4.61a.46.44 13.4 0 0 .66-.39V207a.85.74 9.3 0 0-.61-.74q-9.92-2.86-18.81-1.9c-22.08 2.38-34.8 21.8-29.62 42.93m-84.45-41.51a.53.53 0 0 0-.53-.53h-15.7a.53.53 0 0 0-.53.53v64.7a.53.53 0 0 0 .53.53h15.7a.53.53 0 0 0 .53-.53v-64.7" vector-effect="non-scaling-stroke"/><path stroke="#d58c97" d="M449.2 260.56q.2 6.56.07 7.95-.3 3.1 1.97 2.38a.75.65-10.5 0 0 .51-.64V256a.74.66 11.4 0 0-.48-.64c-2.23-.83-3.17.11-3.87 2.2q-1.61 4.84-3.39 9.53-.3.79-.58-.02l-3.84-10.89a1.28 1.1 79 0 0-1.09-.86l-15.75-.09a.94.33 0 0 0-.94.33v1.63a.94.31 0 0 0 .94.31h3.75a.75.5 90 0 1 .5.75v12a.75.5 90 0 0 .5.75h1.5a.5.5 0 0 0 .5-.5V258a.6.39-85.2 0 1 .49-.63q2.84.8 5.03-.77.48-.35.48.15v13.5a.75.5 90 0 0 .5.75h1.5a.81.49-90 0 0 .49-.81c0-1.58-.37-8.92.28-9.87q.34-.5.56.21c.21.67 4.25 16.48 6.68 8.63q1.39-4.48 3.45-8.65.23-.45.24.05" vector-effect="non-scaling-stroke"/><path stroke="#e28998" d="M386.77 238.17a17 17 0 0 0-17-17 17 17 0 0 0-17 17 17 17 0 0 0 17 17 17 17 0 0 0 17-17" vector-effect="non-scaling-stroke"/><path stroke="#80aab4" d="M367.49 415.81a.33.33 9.4 0 0 .31.43l11.42.02a.33.33-8.9 0 0 .31-.43l-5.68-17.38a.33.33 45.4 0 0-.62 0l-5.74 17.36" vector-effect="non-scaling-stroke"/></g><path fill="#fff" d="M0 0h512v511H0V0Zm504.76 44.69a39.43 39.43 0 0 0-39.43-39.43H46.95A39.43 39.43 0 0 0 7.52 44.69v417.64a39.43 39.43 0 0 0 39.43 39.43h418.38a39.43 39.43 0 0 0 39.43-39.43V44.69Z"/><path fill="#005569" d="M504.76 462.33a39.43 39.43 0 0 1-39.43 39.43H46.95a39.43 39.43 0 0 1-39.43-39.43V44.69A39.43 39.43 0 0 1 46.95 5.26h418.38a39.43 39.43 0 0 1 39.43 39.43v417.64ZM47.5 16.85c-16.43 0-28.68 12.58-28.69 28.9q-.07 143.34-.06 286.52a.5.48 0 0 0 .5.48h474a.5.49 0 0 0 .5-.49V51.12q0-9.23-1.37-13.96-4.28-14.74-18.87-19-4.91-1.43-15.16-1.43-205.43.04-410.85.12Zm57.65 405.87c4.36 23.26 28.27 31.42 48.72 25.25a.88.7-10.2 0 0 .63-.72V432.5a.52.5-9.9 0 0-.69-.47c-3.62 1.28-7.4 2.77-11.12 2.73-28.8-.33-27.57-52.55 11.25-38.4a.42.39 10.4 0 0 .56-.36v-15a.82.7 8.5 0 0-.61-.7c-28.16-7.54-54.31 12.74-48.74 42.42Zm76.9-19.42c-10.31 31.59 17.99 53.54 47.57 44.66a.88.69-10.4 0 0 .63-.71V432.5a.54.54 79.6 0 0-.73-.51c-3.66 1.39-7.59 2.82-11.39 2.75-28.62-.56-26.96-52.68 11.45-38.36a.5.44 11.3 0 0 .67-.38l-.02-15.19a.87.38 12.2 0 0-.69-.5c-19.87-5.16-40.82 2.53-47.49 22.99Zm89.78 4.92q10.23 15.33 20.78 30.44 2.58 3.69 4.66 7.67.25.47.24.92l-.01 1a.5.5 0 0 0 .5.5h16a.55.42 88.7 0 0 .41-.57q-1.54-34.09-.05-68.18a.48.37-88.5 0 0-.36-.5h-16.25a.48.36 89.3 0 0-.36.49l.86 38.07q.02.64-.24.22-9.91-15.65-17.79-27.26-3.64-5.36-5.63-11a.77.56 77.6 0 0-.59-.52h-18a.47.43 88.1 0 0-.43.5q1.82 34.13-.02 68.25a.47.45-88.2 0 0 .45.5h16a.49.44 89.4 0 0 .44-.5l-.86-40q0-.42.25-.03Zm111.92 22.24q2.84 8.7 4.19 17.76a.62.57 85.3 0 0 .57.53l18.26.01q2.06 0 1.54-2.14c-5.54-22.65-16.45-43.87-21.8-66.59a.69.47 80.7 0 0-.51-.53h-22.25a.54.46-88.7 0 0-.46.52c-.18 5.9-3.98 14.07-6.17 19.64q-8.64 21.98-17.31 45.3-1.42 3.81 2.37 3.81l16.3-.01a.89.55-84.8 0 0 .59-.79q1.18-8.95 4.26-17.44a.8.67-78.5 0 1 .67-.53h19a.82.64-6.4 0 1 .75.46Z"/><path fill="#fff" d="M18.81 45.75c.01-16.32 12.26-28.9 28.69-28.9q205.42-.08 410.85-.12 10.25 0 15.16 1.43 14.59 4.26 18.87 19 1.37 4.73 1.37 13.96v281.14a.5.49 0 0 1-.5.49h-474a.5.48 0 0 1-.5-.48q-.01-143.18.06-286.52Zm148.92 35.51a8.21 8.21 0 0 0-8.21-8.21h-.3a8.21 8.21 0 0 0-8.21 8.21v87.24a8.21 8.21 0 0 0 8.21 8.21h.3a8.21 8.21 0 0 0 8.21-8.21V81.26Zm180.51-.12a8.09 8.09 0 0 0-8.09-8.09h-.3a8.09 8.09 0 0 0-8.09 8.09v87.5a8.09 8.09 0 0 0 8.09 8.09h.3a8.09 8.09 0 0 0 8.09-8.09v-87.5ZM122.5 112.13a8.08 8.08 0 0 0-8.08-8.08h-.54a8.08 8.08 0 0 0-8.08 8.08v40.04a8.08 8.08 0 0 0 8.08 8.08h.54a8.08 8.08 0 0 0 8.08-8.08v-40.04Zm90.24-.13a7.98 7.98 0 0 0-7.98-7.98h-.52a7.98 7.98 0 0 0-7.98 7.98v40.28a7.98 7.98 0 0 0 7.98 7.98h.52a7.98 7.98 0 0 0 7.98-7.98V112Zm90.27-.01a7.97 7.97 0 0 0-7.97-7.97h-.54a7.97 7.97 0 0 0-7.97 7.97v40.3a7.97 7.97 0 0 0 7.97 7.97h.54a7.97 7.97 0 0 0 7.97-7.97v-40.3Zm90.45.14a8.08 8.08 0 0 0-8.08-8.08h-.52a8.08 8.08 0 0 0-8.08 8.08v40.18a8.08 8.08 0 0 0 8.08 8.08h.52a8.08 8.08 0 0 0 8.08-8.08v-40.18ZM77.411 134.559a7.88 7.88 0 0 0-7.852-7.907l-.8-.003a7.88 7.88 0 0 0-7.908 7.852l-.062 17.92a7.88 7.88 0 0 0 7.852 7.907l.8.003a7.88 7.88 0 0 0 7.908-7.852l.062-17.92Zm180.544-.005a7.89 7.89 0 0 0-7.876-7.903l-.84-.002a7.89 7.89 0 0 0-7.904 7.876l-.03 17.78a7.89 7.89 0 0 0 7.876 7.904l.84.002a7.89 7.89 0 0 0 7.904-7.877l.03-17.78Zm180.51-.12a7.79 7.79 0 0 0-7.776-7.803l-.82-.002a7.79 7.79 0 0 0-7.803 7.777l-.032 18.02a7.79 7.79 0 0 0 7.777 7.803l.82.002a7.79 7.79 0 0 0 7.803-7.777l.032-18.02ZM144.37 252.41c-12.49 5.88-30.61 3.73-31.26-13.43-.69-18.32 18.38-21.38 31.46-14.82a.3.26 14.1 0 0 .42-.22L145 207a.8.5 12.6 0 0-.57-.56c-21.74-7.17-45.99 2.38-49.4 26.97-4.07 29.35 24.09 44.77 49.36 36.56a.87.71-10.3 0 0 .61-.72v-16.5a.44.4-13.9 0 0-.63-.34Zm62.49 2.9a.3.22 8.2 0 0-.36.19v14.25a.75.74 5.7 0 0 .6.73c13.64 2.83 36.96 4.33 43.28-12.52 3.92-10.45-.76-21.25-11.39-25.36q-5.66-2.19-11.22-4.42c-4.83-1.94-5.19-6.73-.32-8.57 6.11-2.31 13.38-.62 19.01.55a.44.43 6.5 0 0 .54-.41v-13a.71.58 9.8 0 0-.51-.59c-13.88-3.88-34.91-3.82-39.44 12.97-3.4 12.59 3.97 20.75 15.28 24.51 3.48 1.15 8.67 2.56 10.76 5.24 2.94 3.76-.81 7.03-4.45 7.91-7.08 1.72-14.17.28-21.78-1.48Zm197.81-17.008a34.89 34.23.2 0 0-34.77-34.352 34.89 34.23.2 0 0-35.01 34.108 34.89 34.23.2 0 0 34.77 34.352 34.89 34.23.2 0 0 35.01-34.108Zm-135.96 8.988c5.4 22.03 28.71 28.77 48.45 22.71a.83.77-9.2 0 0 .59-.75v-16.5a.44.39-13.6 0 0-.62-.33c-6.58 3.06-14.32 4.38-21.08 1.47-9.96-4.29-13.23-16.38-7.54-25.39 5.96-9.42 19.32-9.1 28.58-4.61a.46.44 13.4 0 0 .66-.39V207a.85.74 9.3 0 0-.61-.74q-9.92-2.86-18.81-1.9c-22.08 2.38-34.8 21.8-29.62 42.93Zm-84.45-41.51a.53.53 0 0 0-.53-.53h-15.7a.53.53 0 0 0-.53.53v64.7a.53.53 0 0 0 .53.53h15.7a.53.53 0 0 0 .53-.53v-64.7Zm264.94 54.78q.2 6.56.07 7.95-.3 3.1 1.97 2.38a.75.65-10.5 0 0 .51-.64V256a.74.66 11.4 0 0-.48-.64c-2.23-.83-3.17.11-3.87 2.2q-1.61 4.84-3.39 9.53-.3.79-.58-.02l-3.84-10.89a1.28 1.1 79 0 0-1.09-.86l-15.75-.09a.94.33 0 0 0-.94.33v1.63a.94.31 0 0 0 .94.31h3.75a.75.5 90 0 1 .5.75v12a.75.5 90 0 0 .5.75h1.5a.5.5 0 0 0 .5-.5V258a.6.39-85.2 0 1 .49-.63q2.84.8 5.03-.77.48-.35.48.15v13.5a.75.5 90 0 0 .5.75h1.5a.81.49-90 0 0 .49-.81c0-1.58-.37-8.92.28-9.87q.34-.5.56.21c.21.67 4.25 16.48 6.68 8.63q1.39-4.48 3.45-8.65.23-.45.24.05Z"/><rect width="16.72" height="103.66" x="151.01" y="73.05" fill="#005569" rx="8.21"/><rect width="16.48" height="103.68" x="331.76" y="73.05" fill="#005569" rx="8.09"/><rect width="16.7" height="56.2" x="105.8" y="104.05" fill="#005569" rx="8.08"/><rect width="16.48" height="56.24" x="196.26" y="104.02" fill="#005569" rx="7.98"/><rect width="16.48" height="56.24" x="286.53" y="104.02" fill="#005569" rx="7.97"/><rect width="16.68" height="56.34" x="376.78" y="104.05" fill="#005569" rx="8.08"/><rect width="16.56" height="33.68" x="-8.28" y="-16.84" fill="#005569" rx="7.88" transform="rotate(.2 -41072.265 19867.417)"/><rect width="16.62" height="33.56" x="-8.31" y="-16.78" fill="#005569" rx="7.89" transform="rotate(.1 -82054.5 143099.133)"/><rect width="16.4" height="33.6" x="-8.2" y="-16.8" fill="#005569" rx="7.79" transform="rotate(.1 -81964.19 246586.744)"/><path fill="#c41330" d="M113.11 238.98c.65 17.16 18.77 19.31 31.26 13.43a.44.4-13.9 0 1 .63.34v16.5a.87.71-10.3 0 1-.61.72c-25.27 8.21-53.43-7.21-49.36-36.56 3.41-24.59 27.66-34.14 49.4-26.97a.8.5 12.6 0 1 .57.56l-.01 16.94a.3.26 14.1 0 1-.42.22c-13.08-6.56-32.15-3.5-31.46 14.82Zm93.75 16.33c7.61 1.76 14.7 3.2 21.78 1.48 3.64-.88 7.39-4.15 4.45-7.91-2.09-2.68-7.28-4.09-10.76-5.24-11.31-3.76-18.68-11.92-15.28-24.51 4.53-16.79 25.56-16.85 39.44-12.97a.71.58 9.8 0 1 .51.59v13a.44.43 6.5 0 1-.54.41c-5.63-1.17-12.9-2.86-19.01-.55-4.87 1.84-4.51 6.63.32 8.57q5.56 2.23 11.22 4.42c10.63 4.11 15.31 14.91 11.39 25.36-6.32 16.85-29.64 15.35-43.28 12.52a.75.74 5.7 0 1-.6-.73V255.5a.3.22 8.2 0 1 .36-.19Zm197.81-17.008a34.89 34.23.2 0 1-35.01 34.108 34.89 34.23.2 0 1-34.77-34.352 34.89 34.23.2 0 1 35.01-34.108 34.89 34.23.2 0 1 34.77 34.352Zm-17.9-.132a17 17 0 0 0-17-17 17 17 0 0 0-17 17 17 17 0 0 0 17 17 17 17 0 0 0 17-17ZM317.16 270c-19.74 6.06-43.05-.68-48.45-22.71-5.18-21.13 7.54-40.55 29.62-42.93q8.89-.96 18.81 1.9a.85.74 9.3 0 1 .61.74v16.5a.46.44 13.4 0 1-.66.39c-9.26-4.49-22.62-4.81-28.58 4.61-5.69 9.01-2.42 21.1 7.54 25.39 6.76 2.91 14.5 1.59 21.08-1.47a.44.39-13.6 0 1 .62.33v16.5a.83.77-9.2 0 1-.59.75Z"/><rect width="16.76" height="65.76" x="167.5" y="205.25" fill="#c41330" rx=".53"/><circle cx="369.77" cy="238.17" r="17" fill="#fff"/><path fill="#aa182e" d="M448.96 260.51q-2.06 4.17-3.45 8.65c-2.43 7.85-6.47-7.96-6.68-8.63q-.22-.71-.56-.21c-.65.95-.28 8.29-.28 9.87a.81.49-90 0 1-.49.81H436a.75.5 90 0 1-.5-.75v-13.5q0-.5-.48-.15-2.19 1.57-5.03.77a.6.39-85.2 0 0-.49.63v12.5a.5.5 0 0 1-.5.5h-1.5a.75.5 90 0 1-.5-.75v-12a.75.5 90 0 0-.5-.75h-3.75a.94.31 0 0 1-.94-.31v-1.63a.94.33 0 0 1 .94-.33l15.75.09a1.28 1.1 79 0 1 1.09.86l3.84 10.89q.28.81.58.02 1.78-4.69 3.39-9.53c.7-2.09 1.64-3.03 3.87-2.2a.74.66 11.4 0 1 .48.64v14.25a.75.65-10.5 0 1-.51.64q-2.27.72-1.97-2.38.13-1.39-.07-7.95-.01-.5-.24-.05Z"/><path fill="#fff" d="M153.87 447.97c-20.45 6.17-44.36-1.99-48.72-25.25-5.57-29.68 20.58-49.96 48.74-42.42a.82.7 8.5 0 1 .61.7v15a.42.39 10.4 0 1-.56.36c-38.82-14.15-40.05 38.07-11.25 38.4 3.72.04 7.5-1.45 11.12-2.73a.52.5-9.9 0 1 .69.47v14.75a.88.7-10.2 0 1-.63.72Zm75.75-.01c-29.58 8.88-57.88-13.07-47.57-44.66 6.67-20.46 27.62-28.15 47.49-22.99a.87.38 12.2 0 1 .69.5l.02 15.19a.5.44 11.3 0 1-.67.38c-38.41-14.32-40.07 37.8-11.45 38.36 3.8.07 7.73-1.36 11.39-2.75a.54.54 79.6 0 1 .73.51v14.75a.88.69-10.4 0 1-.63.71Zm41.96-39.71.86 40a.49.44 89.4 0 1-.44.5h-16a.47.45-88.2 0 1-.45-.5q1.84-34.12.02-68.25a.47.43 88.1 0 1 .43-.5h18a.77.56 77.6 0 1 .59.52q1.99 5.64 5.63 11 7.88 11.61 17.79 27.26.26.42.24-.22l-.86-38.07a.48.36 89.3 0 1 .36-.49H314a.48.37-88.5 0 1 .36.5q-1.49 34.09.05 68.18a.55.42 88.7 0 1-.41.57h-16a.5.5 0 0 1-.5-.5l.01-1q.01-.45-.24-.92-2.08-3.98-4.66-7.67-10.55-15.11-20.78-30.44-.25-.39-.25.03ZM383 430h-19a.8.67-78.5 0 0-.67.53q-3.08 8.49-4.26 17.44a.89.55-84.8 0 1-.59.79l-16.3.01q-3.79 0-2.37-3.81 8.67-23.32 17.31-45.3c2.19-5.57 5.99-13.74 6.17-19.64a.54.46-88.7 0 1 .46-.52H386a.69.47 80.7 0 1 .51.53c5.35 22.72 16.26 43.94 21.8 66.59q.52 2.14-1.54 2.14l-18.26-.01a.62.57 85.3 0 1-.57-.53q-1.35-9.06-4.19-17.76a.82.64-6.4 0 0-.75-.46Zm-15.51-14.19a.33.33 9.4 0 0 .31.43l11.42.02a.33.33-8.9 0 0 .31-.43l-5.68-17.38a.33.33 45.4 0 0-.62 0l-5.74 17.36Z"/><path fill="#005569" d="m367.49 415.81 5.74-17.36a.33.33 46.5 0 1 .62 0l5.68 17.38a.33.33-7.2 0 1-.31.43l-11.42-.02a.33.33 10.1 0 1-.31-.43Z"/></svg>